<svg preserveAspectRatio="none" width="100%" height="100%" overflow="visible" style="display: block;" viewBox="0 0 125 32.8125" fill="none" xmlns="http://www.w3.org/2000/svg">
<g id="Group">
<path id="Vector" d="M24.4792 13.0324C24.4792 14.8727 24.1782 16.5741 23.5764 18.1597C22.9745 19.7454 22.1181 21.1227 21.0185 22.3032C19.919 23.4838 18.6227 24.4097 17.1296 25.0694C15.6366 25.7292 13.9931 26.0648 12.1991 26.0648C10.4398 26.0648 8.80787 25.7292 7.31481 25.0694C5.82176 24.4097 4.52546 23.4838 3.42593 22.3032C2.32639 21.1227 1.48148 19.7338 0.891204 18.1597C0.300926 16.5741 0 14.8727 0 13.0324C0 11.2037 0.300926 9.49074 0.891204 7.91667C1.48148 6.33102 2.32639 4.9537 3.42593 3.77315C4.52546 2.59259 5.82176 1.66667 7.31481 1.00694C8.80787 0.335648 10.4398 0 12.1991 0C13.9931 0 15.625 0.335648 17.1296 0.99537C18.6227 1.65509 19.919 2.58102 21.0185 3.76157C22.1181 4.94213 22.963 6.33102 23.5764 7.90509C24.1782 9.49074 24.4792 11.2037 24.4792 13.0324ZM20.5671 13.0324C20.5671 11.25 20.2083 9.6412 19.5023 8.21759C18.7847 6.79398 17.8009 5.6713 16.5509 4.84954C15.3009 4.02778 13.8426 3.62269 12.2106 3.62269C10.5903 3.62269 9.15509 4.02778 7.90509 4.84954C6.64352 5.6713 5.65972 6.79398 4.96528 8.20602C4.25926 9.61806 3.91204 11.2269 3.91204 13.044C3.91204 14.8264 4.25926 16.4352 4.96528 17.8588C5.65972 19.2824 6.64352 20.4051 7.89352 21.2269C9.14352 22.037 10.5903 22.4537 12.1991 22.4537C13.8426 22.4537 15.2894 22.0486 16.5394 21.2269C17.7894 20.4051 18.7731 19.2824 19.4907 17.8588C20.2083 16.4236 20.5671 14.8264 20.5671 13.0324Z" fill="var(--fill-0, #006989)"/>
<path id="Vector_2" d="M30.6713 26.5046C30.6713 27.8125 30.4051 28.9352 29.8727 29.8727C29.3403 30.8102 28.6458 31.5393 27.7778 32.0486C26.9097 32.5578 25.9838 32.8125 24.9884 32.8125C24.4792 32.8125 24.0741 32.6504 23.7616 32.3264C23.4491 32.0023 23.287 31.6088 23.287 31.1458V30.8217C23.287 30.3819 23.4375 30.0347 23.7384 29.7685C24.0393 29.5023 24.4097 29.294 24.838 29.1551C25.3935 28.9815 25.8333 28.7384 26.1574 28.4143C26.4815 28.0903 26.713 27.6736 26.8403 27.1875C26.9676 26.6898 27.037 26.1574 27.037 25.5787V8.4722C27.037 7.96294 27.2106 7.5347 27.5463 7.18747C27.8819 6.84025 28.3218 6.66664 28.8542 6.66664C29.3866 6.66664 29.8148 6.84025 30.162 7.18747C30.4977 7.5347 30.6713 7.96294 30.6713 8.4722V26.5046ZM28.7847 4.13192C28.0787 4.13192 27.581 4.0046 27.2685 3.74998C26.956 3.49535 26.794 3.0671 26.794 2.46525V1.88655C26.794 1.2847 26.9676 0.856457 27.3032 0.613401C27.6389 0.370346 28.1481 0.254605 28.8194 0.254605C29.5486 0.254605 30.0579 0.38192 30.3819 0.636549C30.6944 0.891179 30.8565 1.30785 30.8565 1.88655V2.46525C30.8565 3.09025 30.6944 3.53007 30.3704 3.77312C30.0347 4.0046 29.5023 4.13192 28.7847 4.13192Z" fill="var(--fill-0, #006989)"/>
<path id="Vector_3" d="M68.2986 16.1921C68.2986 18.125 67.8704 19.8264 67.0255 21.3194C66.1806 22.8125 65.0347 23.9699 63.588 24.8148C62.1412 25.6597 60.5093 26.0879 58.7037 26.0879C56.8866 26.0879 55.2662 25.6597 53.8195 24.8148C53.125 24.4097 52.5 23.9352 51.9445 23.3796C51.5625 22.9977 51.2153 22.5926 50.9028 22.1528C50.706 21.8865 50.5324 21.6088 50.3704 21.3194C49.5139 19.8379 49.0857 18.125 49.0857 16.1921C49.0857 14.8611 48.8195 13.7153 48.287 12.7315C48.2176 12.6041 48.1482 12.4884 48.0787 12.3727C47.5695 11.5625 46.9213 10.9143 46.1343 10.4166C45.2315 9.84951 44.2245 9.56016 43.1134 9.56016C42.0023 9.56016 40.9838 9.83794 40.0695 10.4166C39.1551 10.9838 38.4259 11.7592 37.8935 12.7315C37.3611 13.7153 37.0949 14.8611 37.0949 16.1921C37.0949 17.4653 37.3611 18.6111 37.8935 19.5949C38.4259 20.5787 39.1435 21.3541 40.0695 21.9097C40.9838 22.4653 42.0023 22.743 43.1134 22.743C44.2245 22.743 45.2315 22.4653 46.1343 21.9097C46.713 21.5509 47.2107 21.1111 47.6389 20.5787C47.8357 20.3356 48.2176 20.4051 48.3333 20.6944C48.5301 21.1805 48.75 21.6435 49.0162 22.0949C49.1898 22.3842 49.3634 22.6736 49.5602 22.9514C49.7454 23.206 49.6875 23.5648 49.4445 23.7731C49.0046 24.1551 48.5185 24.5023 47.9977 24.8032C46.5509 25.6481 44.919 26.0764 43.1134 26.0764C41.2963 26.0764 39.6759 25.6481 38.2292 24.8032C36.7824 23.9583 35.625 22.7893 34.7685 21.3078C33.912 19.8264 33.4838 18.1134 33.4838 16.1805C33.4838 14.2245 33.912 12.5 34.7685 11.0185C35.625 9.53701 36.7824 8.36803 38.2292 7.49998C39.6759 6.64349 41.3079 6.21525 43.1134 6.21525C44.9306 6.21525 46.5509 6.64349 47.9977 7.49998C48.6921 7.90507 49.3171 8.39118 49.8727 8.94674C50.2546 9.32868 50.6019 9.73377 50.9144 10.1736C51.1111 10.4398 51.2847 10.7176 51.4468 11.0069C52.2917 12.4884 52.7083 14.2129 52.7083 16.169C52.7083 17.4421 52.9745 18.5879 53.507 19.5717C53.5764 19.6991 53.6458 19.8264 53.7269 19.9537C54.2245 20.7639 54.8843 21.412 55.6829 21.8981C56.5972 22.4537 57.6157 22.7315 58.7269 22.7315C59.838 22.7315 60.8449 22.4537 61.7477 21.8981C62.6505 21.3426 63.3681 20.5671 63.9005 19.5833C64.4329 18.5995 64.6991 17.4537 64.6991 16.1805C64.6991 14.8495 64.4329 13.7037 63.9005 12.7199C63.3681 11.7477 62.6505 10.9722 61.7477 10.4051C60.8449 9.83794 59.838 9.54859 58.7269 9.54859C57.6157 9.54859 56.5972 9.82636 55.6829 10.4051C55.0926 10.7639 54.5949 11.2153 54.1551 11.7477C53.9583 11.9907 53.5764 11.9213 53.4607 11.6319C53.2755 11.1574 53.0556 10.6944 52.8009 10.2546C52.6389 9.95368 52.4537 9.6759 52.2685 9.39812C52.0833 9.13192 52.1296 8.7847 52.3727 8.57636C52.8241 8.18285 53.3102 7.83562 53.831 7.52312C55.2778 6.66664 56.9097 6.2384 58.7153 6.2384C60.5324 6.2384 62.1528 6.66664 63.5995 7.52312C65.0463 8.37961 66.1921 9.54859 67.037 11.0416C67.882 12.5347 68.2986 14.2361 68.2986 16.1921Z" fill="var(--fill-0, #006989)"/>
<path id="Vector_4" d="M69.3055 22.743C69.0856 22.4074 68.993 22.0139 69.0162 21.5625C69.0393 21.1111 69.294 20.7407 69.7801 20.4166C70.1157 20.1967 70.4745 20.1041 70.8449 20.1504C71.2153 20.1852 71.5741 20.3703 71.9097 20.706C72.581 21.4583 73.3449 22.0486 74.1782 22.4768C75.0116 22.9166 76.0185 23.125 77.1991 23.125C77.6852 23.1018 78.1713 23.0208 78.6805 22.8935C79.1898 22.7662 79.618 22.5231 79.9884 22.1643C80.3472 21.8171 80.5324 21.2963 80.5324 20.625C80.5324 20.0231 80.3356 19.537 79.9537 19.1782C79.5718 18.8194 79.0625 18.5185 78.4375 18.287C77.8125 18.0555 77.1296 17.8472 76.412 17.6504C75.6366 17.4305 74.8611 17.1875 74.0741 16.9213C73.287 16.6551 72.581 16.3078 71.956 15.8912C71.331 15.4745 70.8102 14.919 70.4167 14.2477C70.0231 13.5764 69.8148 12.743 69.8148 11.7477C69.8148 10.6134 70.1389 9.6296 70.7755 8.81942C71.412 7.99766 72.2454 7.36109 73.2755 6.89812C74.3055 6.43516 75.4167 6.21525 76.6204 6.21525C77.3148 6.21525 78.0555 6.30785 78.831 6.48146C79.6065 6.66664 80.3472 6.94442 81.0764 7.33794C81.8055 7.71988 82.4305 8.22914 82.963 8.85414C83.206 9.16664 83.3449 9.53701 83.3796 9.97683C83.4143 10.4166 83.2176 10.7986 82.7778 11.1342C82.4884 11.3773 82.1412 11.4815 81.7245 11.4583C81.3194 11.4352 80.9722 11.2963 80.706 11.0648C80.243 10.4861 79.6528 10.0347 78.9352 9.71062C78.206 9.38655 77.3843 9.22451 76.4699 9.22451C76.0069 9.22451 75.5324 9.29396 75.0347 9.42127C74.537 9.54859 74.1204 9.79164 73.7847 10.1273C73.4491 10.4629 73.2755 10.9606 73.2755 11.6088C73.2755 12.2106 73.4722 12.6967 73.8773 13.0555C74.2708 13.4143 74.8032 13.7153 75.4514 13.9583C76.0995 14.2014 76.8171 14.4213 77.5926 14.6065C78.3449 14.8032 79.0856 15.0347 79.8148 15.2893C80.5555 15.5555 81.2153 15.9028 81.8055 16.3194C82.3958 16.7477 82.8819 17.2801 83.2523 17.9514C83.6227 18.6111 83.8194 19.456 83.8194 20.4629C83.8194 21.6435 83.4722 22.6504 82.7893 23.4838C82.1065 24.3171 81.2268 24.9537 80.1852 25.3819C79.1319 25.8217 78.0324 26.0301 76.875 26.0301C75.4977 26.0301 74.1319 25.787 72.7662 25.2893C71.4005 24.8379 70.243 23.9699 69.3055 22.743Z" fill="var(--fill-0, #006989)"/>
<g id="Group_2">
<path id="Vector_5" d="M103.924 1.79396C104.456 2.06017 104.757 2.46526 104.85 3.02081C104.931 3.57637 104.792 4.08563 104.433 4.53702C104.167 4.89581 103.819 5.10415 103.403 5.15044C102.975 5.19674 102.569 5.11572 102.153 4.89581C101.447 4.53702 100.718 4.24767 99.9421 4.02776C99.1667 3.80785 98.3449 3.70368 97.4768 3.70368C96.0995 3.70368 94.8611 3.92359 93.7616 4.37498C92.662 4.82637 91.713 5.46294 90.9143 6.29628C90.1157 7.12961 89.5023 8.11341 89.0856 9.24767C88.6574 10.3819 88.4491 11.6319 88.4491 13.0092C88.4491 14.5254 88.6805 15.8796 89.1319 17.0486C89.5949 18.2176 90.2199 19.2129 91.0301 20.0231C91.8403 20.8333 92.7893 21.4352 93.8889 21.8287C94.9884 22.2222 96.1806 22.4305 97.4537 22.4305C98.2755 22.4305 99.0741 22.3379 99.8611 22.1412C100.648 21.9444 101.389 21.6551 102.083 21.2731C102.523 21.0532 102.951 20.9722 103.368 21.0416C103.785 21.0995 104.132 21.3079 104.398 21.6782C104.803 22.1875 104.954 22.6967 104.85 23.2176C104.745 23.7384 104.433 24.1319 103.924 24.3981C103.322 24.7338 102.65 25.0231 101.933 25.2662C101.204 25.5092 100.475 25.706 99.7222 25.8449C98.9699 25.9954 98.2176 26.0648 97.4421 26.0648C95.706 26.0648 94.0625 25.7754 92.5231 25.1967C90.9722 24.618 89.6065 23.7731 88.3912 22.662C87.1875 21.5509 86.2384 20.1852 85.544 18.5648C84.8611 16.9444 84.5139 15.1041 84.5139 13.0208C84.5139 11.1574 84.838 9.44443 85.4745 7.85878C86.1111 6.27313 87.0139 4.91896 88.1944 3.76156C89.3634 2.61572 90.7407 1.72452 92.3032 1.07637C93.8773 0.439796 95.5903 0.115722 97.4421 0.115722C98.5995 0.115722 99.7338 0.266185 100.833 0.555537C101.968 0.856462 102.986 1.26156 103.924 1.79396Z" fill="var(--fill-0, #006989)"/>
<path id="Vector_6" d="M125 16.169C125 18.1018 124.572 19.8032 123.727 21.2963C122.882 22.7778 121.736 23.9467 120.289 24.7916C118.843 25.6365 117.211 26.0648 115.405 26.0648C113.599 26.0648 111.968 25.6481 110.521 24.7916C109.074 23.9467 107.917 22.7778 107.06 21.2963C106.204 19.8148 105.775 18.1018 105.775 16.169C105.775 14.2129 106.204 12.4884 107.06 11.0069C107.917 9.52544 109.074 8.35646 110.521 7.49997C111.968 6.64349 113.599 6.21525 115.405 6.21525C117.211 6.21525 118.843 6.64349 120.289 7.49997C121.736 8.35646 122.882 9.52544 123.727 11.0069C124.572 12.4884 125 14.2129 125 16.169ZM121.377 16.169C121.377 14.8379 121.111 13.6921 120.579 12.7083C120.046 11.7361 119.329 10.9606 118.426 10.3935C117.523 9.82636 116.516 9.53701 115.405 9.53701C114.294 9.53701 113.275 9.82636 112.361 10.3935C111.447 10.9606 110.718 11.7361 110.185 12.7083C109.653 13.6805 109.387 14.8379 109.387 16.169C109.387 17.4537 109.653 18.5879 110.185 19.5717C110.718 20.5671 111.435 21.331 112.361 21.8865C113.275 22.4421 114.294 22.7199 115.405 22.7199C116.516 22.7199 117.523 22.4421 118.426 21.8865C119.329 21.331 120.046 20.5555 120.579 19.5717C121.111 18.5879 121.377 17.4537 121.377 16.169Z" fill="var(--fill-0, #006989)"/>
</g>
</g>
</svg>
